HIERARCHY
ROOT Hips
{
	OFFSET -0.001795 -0.223333 0.028219
	CHANNELS 6 Xposition Yposition Zposition Zrotation Yrotation Xrotation 
	JOINT LeftUpLeg
	{
		OFFSET 0.069520 -0.091406 -0.006815
		CHANNELS 3 Zrotation Yrotation Xrotation
		JOINT LeftLeg
		{
			OFFSET 0.034277 -0.375199 -0.004496
			CHANNELS 3 Zrotation Yrotation Xrotation
			JOINT LeftFoot
			{
				OFFSET -0.013596 -0.397961 -0.043693
				CHANNELS 3 Zrotation Yrotation Xrotation
				JOINT LeftToe
				{
					OFFSET 0.026358 -0.055791 0.119288
					CHANNELS 3 Zrotation Yrotation Xrotation
					End Site
					{
						OFFSET 0.000000 0.000000 0.000000
					}
				}
			}
		}
	}
	JOINT RightUpLeg
	{
		OFFSET -0.067670 -0.090522 -0.004320
		CHANNELS 3 Zrotation Yrotation Xrotation
		JOINT RightLeg
		{
			OFFSET -0.038290 -0.382569 -0.008850
			CHANNELS 3 Zrotation Yrotation Xrotation
			JOINT RightFoot
			{
				OFFSET 0.015774 -0.398415 -0.042312
				CHANNELS 3 Zrotation Yrotation Xrotation
				JOINT RightToe
				{
					OFFSET -0.025372 -0.048144 0.123348
					CHANNELS 3 Zrotation Yrotation Xrotation
					End Site
					{
						OFFSET 0.000000 0.000000 0.000000
					}
				}
			}
		}
	}
	JOINT Spine
	{
		OFFSET -0.002533 0.108963 -0.026696
		CHANNELS 3 Zrotation Yrotation Xrotation
		JOINT Spine1
		{
			OFFSET 0.005487 0.135180 0.001092
			CHANNELS 3 Zrotation Yrotation Xrotation
			JOINT Spine2
			{
				OFFSET 0.001457 0.052922 0.025425
				CHANNELS 3 Zrotation Yrotation Xrotation
				JOINT Neck
				{
					OFFSET -0.002778 0.213870 -0.042857
					CHANNELS 3 Zrotation Yrotation Xrotation
					JOINT Head
					{
						OFFSET 0.005152 0.064970 0.051349
						CHANNELS 3 Zrotation Yrotation Xrotation
						End Site
						{
							OFFSET 0.000000 0.000000 0.000000
						}
					}
				}
				JOINT LeftShoulder
				{
					OFFSET 0.078845 0.121749 -0.034090
					CHANNELS 3 Zrotation Yrotation Xrotation
					JOINT LeftArm
					{
						OFFSET 0.090977 0.030469 -0.008868
						CHANNELS 3 Zrotation Yrotation Xrotation
						JOINT LeftForeArm
						{
							OFFSET 0.259612 -0.012772 -0.027456
							CHANNELS 3 Zrotation Yrotation Xrotation
							JOINT LeftHand
							{
								OFFSET 0.249234 0.008986 -0.001171
								CHANNELS 3 Zrotation Yrotation Xrotation
								End Site
								{
									OFFSET 0.000000 0.000000 0.000000
								}
							}
						}
					}
				}
				JOINT RightShoulder
				{
					OFFSET -0.081759 0.118833 -0.038615
					CHANNELS 3 Zrotation Yrotation Xrotation
					JOINT RightArm
					{
						OFFSET -0.096012 0.032551 -0.009143
						CHANNELS 3 Zrotation Yrotation Xrotation
						JOINT RightForeArm
						{
							OFFSET -0.253742 -0.013329 -0.021401
							CHANNELS 3 Zrotation Yrotation Xrotation
							JOINT RightHand
							{
								OFFSET -0.255298 0.007772 -0.005559
								CHANNELS 3 Zrotation Yrotation Xrotation
								End Site
								{
									OFFSET 0.000000 0.000000 0.000000
								}
							}
						}
					}
				}
			}
		}
	}
}
MOTION
Frames: 7
Frame Time: 0.050000
0.916919 0.944901 1.059168 -179.025700 59.011500 -176.960612 4.098615 -3.496712 2.622010 -3.207003 -3.223273 -4.994299 -1.504614 -5.274264 8.407623 0.000000 0.000000 0.000000 -3.097221 -3.858511 -3.168888 0.539780 -3.645690 3.924704 14.202428 3.593200 7.032634 0.000000 0.000000 0.000000 -0.485964 -0.299678 -1.116303 -6.971672 -7.100351 3.376513 5.733642 8.451538 3.158178 8.195865 5.004318 -20.183714 0.000000 0.000000 0.000000 -25.886691 -12.112469 -34.482993 -33.638142 32.727392 -6.343675 -18.678066 -24.711898 1.775844 0.000000 0.000000 0.000000 29.467575 -2.492068 27.469160 40.453794 30.245638 -0.218807 -17.324170 46.488097 -3.761384 0.000000 0.000000 0.000000 
0.916879 0.944887 1.060477 -178.799322 59.395468 -176.647351 4.225256 -3.646480 3.068596 -3.113938 -3.380089 -6.003595 -1.361777 -4.672363 8.707810 0.000000 0.000000 0.000000 -2.782274 -3.674236 -3.441168 0.317904 -3.517235 3.980145 14.129908 3.716592 7.055379 0.000000 0.000000 0.000000 -0.554398 -0.317154 -1.270755 -7.116868 -7.032160 3.429087 6.004703 8.209804 3.181730 8.547210 4.838966 -19.914735 0.000000 0.000000 0.000000 -26.100942 -11.733510 -34.425837 -33.342630 32.699368 -6.269812 -19.124525 -24.623018 1.902811 0.000000 0.000000 0.000000 29.129961 -2.077241 27.179298 40.429703 30.324822 -0.003472 -19.272220 48.266771 -4.374602 0.000000 0.000000 0.000000 
0.917004 0.944909 1.062635 -178.373747 59.645938 -176.139264 4.540146 -3.845111 3.311122 -3.040869 -3.525521 -6.760806 -1.162177 -4.182261 8.960604 0.000000 0.000000 0.000000 -2.431354 -3.486316 -3.699461 0.336921 -3.509689 3.985794 14.040064 3.819386 7.148817 0.000000 0.000000 0.000000 -0.785522 -0.326220 -1.288220 -6.650755 -6.929820 3.244468 5.999890 7.664360 3.316254 9.047187 4.552216 -19.549011 0.000000 0.000000 0.000000 -26.101015 -11.438764 -34.158137 -33.360410 32.583300 -6.342222 -19.480361 -24.895074 2.021296 0.000000 0.000000 0.000000 29.069575 -2.014787 26.903438 39.955376 30.779774 0.113447 -20.767008 49.877904 -4.874309 0.000000 0.000000 0.000000 
0.917436 0.945109 1.065521 -177.960750 59.728540 -175.541464 5.071818 -4.075892 3.344097 -3.215338 -3.759097 -7.420526 -1.064491 -3.695539 9.325549 0.000000 0.000000 0.000000 -2.038958 -3.292836 -3.997179 0.410115 -3.497589 3.892884 13.803874 3.804685 7.289301 0.000000 0.000000 0.000000 -0.933192 -0.358598 -1.499739 -6.430774 -6.882753 3.144396 6.068778 7.240127 3.416142 9.731080 4.188149 -19.168869 0.000000 0.000000 0.000000 -26.086850 -11.231055 -34.000734 -33.068269 32.569475 -6.296328 -20.167192 -25.471609 2.232393 0.000000 0.000000 0.000000 28.988962 -1.711877 26.873092 40.101229 30.720126 0.188202 -21.806400 51.322922 -5.304258 0.000000 0.000000 0.000000 
0.917841 0.945252 1.068535 -177.521130 59.763485 -175.006962 5.431224 -4.240398 3.375086 -3.051069 -3.824255 -7.897340 -0.994730 -3.438178 9.545007 0.000000 0.000000 0.000000 -1.694882 -3.125929 -4.182881 0.593544 -3.543803 3.779766 13.608534 3.810568 7.437025 0.000000 0.000000 0.000000 -1.033363 -0.374499 -1.592704 -6.118002 -6.857351 3.070605 6.220003 6.902890 3.584558 9.990863 4.130797 -19.165591 0.000000 0.000000 0.000000 -26.279141 -11.165675 -34.003695 -32.661792 32.650329 -6.181565 -20.716909 -25.327120 2.395497 0.000000 0.000000 0.000000 29.197690 -1.727904 26.872974 39.917240 30.730247 0.084019 -21.696125 52.246523 -5.317245 0.000000 0.000000 0.000000 
0.918183 0.945336 1.071223 -177.173606 59.827195 -174.423638 5.706837 -4.262886 3.065841 -2.872987 -3.789780 -7.991079 -0.911734 -3.373800 9.629475 0.000000 0.000000 0.000000 -1.392516 -2.974348 -4.344128 0.762554 -3.470892 3.369448 13.360665 3.757134 7.603224 0.000000 0.000000 0.000000 -1.131298 -0.381434 -1.618395 -5.585832 -6.732558 2.785912 6.134326 6.420904 3.814175 10.022988 3.978781 -18.756876 0.000000 0.000000 0.000000 -26.274830 -10.926305 -34.027172 -32.539930 32.814361 -6.223168 -21.787374 -25.485243 2.630236 0.000000 0.000000 0.000000 29.057986 -1.846471 26.559712 40.231650 30.237526 0.031316 -21.250418 53.046290 -5.067391 0.000000 0.000000 0.000000 
0.918343 0.945389 1.073288 -177.103914 59.701322 -174.375353 5.753423 -4.298872 3.111315 -2.615395 -3.748203 -8.174479 -1.025062 -3.416361 9.711412 0.000000 0.000000 0.000000 -1.329880 -2.956282 -4.352006 0.963824 -3.575096 3.338563 13.295699 3.744653 7.640452 0.000000 0.000000 0.000000 -1.078003 -0.355870 -1.421960 -5.405406 -6.774452 2.770263 6.302364 6.259581 4.023100 9.901901 3.955200 -18.457533 0.000000 0.000000 0.000000 -26.425369 -10.689508 -34.212044 -32.595713 33.105177 -6.317254 -22.456817 -24.884356 2.704424 0.000000 0.000000 0.000000 29.199262 -1.974077 26.490524 40.165313 29.832726 -0.169198 -19.675840 53.024371 -4.450730 0.000000 0.000000 0.000000 
